<svg width="1920" height="147" viewBox="0 0 1920 147" fill="none" xmlns="http://www.w3.org/2000/svg">
<g filter="url(#filter0_b_488_12960)">
<rect width="1920" height="147" fill="#DEDEDE" fill-opacity="0.5"/>
</g>
<path d="M739.207 80L735.48 69.2686H735.41C735.51 70.8623 735.56 72.3564 735.56 73.751V80H733.652V67.1504H736.614L740.183 77.3721H740.235L743.909 67.1504H746.88V80H744.858V73.6455C744.858 73.0068 744.873 72.1748 744.902 71.1494C744.938 70.124 744.967 69.5029 744.99 69.2861H744.92L741.062 80H739.207ZM754.289 80.1758C752.777 80.1758 751.594 79.7363 750.738 78.8574C749.889 77.9727 749.464 76.7568 749.464 75.21C749.464 73.6221 749.859 72.374 750.65 71.4658C751.441 70.5576 752.528 70.1035 753.911 70.1035C755.194 70.1035 756.208 70.4932 756.952 71.2725C757.696 72.0518 758.068 73.124 758.068 74.4893V75.6055H751.591C751.62 76.5488 751.875 77.2754 752.355 77.7852C752.836 78.2891 753.513 78.541 754.386 78.541C754.96 78.541 755.493 78.4883 755.985 78.3828C756.483 78.2715 757.017 78.0898 757.585 77.8379V79.5166C757.081 79.7568 756.571 79.9268 756.056 80.0264C755.54 80.126 754.951 80.1758 754.289 80.1758ZM753.911 71.668C753.255 71.668 752.728 71.876 752.329 72.292C751.937 72.708 751.702 73.3145 751.626 74.1113H756.038C756.026 73.3086 755.833 72.7021 755.458 72.292C755.083 71.876 754.567 71.668 753.911 71.668ZM765.346 80.1758C764.115 80.1758 763.16 79.7334 762.48 78.8486H762.357C762.439 79.6689 762.48 80.167 762.48 80.3428V84.3242H760.415V70.2793H762.085C762.132 70.4609 762.229 70.8945 762.375 71.5801H762.48C763.125 70.5957 764.092 70.1035 765.381 70.1035C766.594 70.1035 767.537 70.543 768.211 71.4219C768.891 72.3008 769.23 73.5342 769.23 75.1221C769.23 76.71 768.885 77.9492 768.193 78.8398C767.508 79.7305 766.559 80.1758 765.346 80.1758ZM764.845 71.791C764.024 71.791 763.424 72.0312 763.043 72.5117C762.668 72.9922 762.48 73.7598 762.48 74.8145V75.1221C762.48 76.3057 762.668 77.1641 763.043 77.6973C763.418 78.2246 764.03 78.4883 764.88 78.4883C765.595 78.4883 766.146 78.1953 766.532 77.6094C766.919 77.0234 767.112 76.1885 767.112 75.1045C767.112 74.0146 766.919 73.1914 766.532 72.6348C766.151 72.0723 765.589 71.791 764.845 71.791ZM780.252 75.1221C780.252 76.71 779.845 77.9492 779.03 78.8398C778.216 79.7305 777.082 80.1758 775.629 80.1758C774.721 80.1758 773.918 79.9707 773.221 79.5605C772.523 79.1504 771.987 78.5615 771.612 77.7939C771.237 77.0264 771.05 76.1357 771.05 75.1221C771.05 73.5459 771.454 72.3154 772.263 71.4307C773.071 70.5459 774.211 70.1035 775.682 70.1035C777.088 70.1035 778.201 70.5576 779.021 71.4658C779.842 72.3682 780.252 73.5869 780.252 75.1221ZM773.177 75.1221C773.177 77.3662 774.006 78.4883 775.664 78.4883C777.305 78.4883 778.125 77.3662 778.125 75.1221C778.125 72.9014 777.299 71.791 775.646 71.791C774.779 71.791 774.149 72.0781 773.757 72.6523C773.37 73.2266 773.177 74.0498 773.177 75.1221ZM791.133 70.2793V80H789.059V71.9141H784.699V80H782.634V70.2793H791.133ZM799.025 80.1758C797.795 80.1758 796.84 79.7334 796.16 78.8486H796.037C796.119 79.6689 796.16 80.167 796.16 80.3428V84.3242H794.095V70.2793H795.765C795.812 70.4609 795.908 70.8945 796.055 71.5801H796.16C796.805 70.5957 797.771 70.1035 799.061 70.1035C800.273 70.1035 801.217 70.543 801.891 71.4219C802.57 72.3008 802.91 73.5342 802.91 75.1221C802.91 76.71 802.564 77.9492 801.873 78.8398C801.188 79.7305 800.238 80.1758 799.025 80.1758ZM798.524 71.791C797.704 71.791 797.104 72.0312 796.723 72.5117C796.348 72.9922 796.16 73.7598 796.16 74.8145V75.1221C796.16 76.3057 796.348 77.1641 796.723 77.6973C797.098 78.2246 797.71 78.4883 798.56 78.4883C799.274 78.4883 799.825 78.1953 800.212 77.6094C800.599 77.0234 800.792 76.1885 800.792 75.1045C800.792 74.0146 800.599 73.1914 800.212 72.6348C799.831 72.0723 799.269 71.791 798.524 71.791ZM807.287 70.2793V75.2627C807.287 75.8428 807.24 76.6953 807.146 77.8203L812.024 70.2793H814.547V80H812.561V75.1045C812.561 74.835 812.575 74.3984 812.604 73.7949C812.64 73.1914 812.669 72.752 812.692 72.4766L807.832 80H805.31V70.2793H807.287ZM818.484 80H816.173L818.88 76.0186C818.224 75.8311 817.708 75.4971 817.333 75.0166C816.958 74.5303 816.771 73.9297 816.771 73.2148C816.771 72.2949 817.099 71.5771 817.755 71.0615C818.411 70.54 819.308 70.2793 820.444 70.2793H824.874V80H822.8V76.2559H820.84L818.484 80ZM818.783 73.2324C818.783 73.7305 818.971 74.1055 819.346 74.3574C819.727 74.6035 820.236 74.7266 820.875 74.7266H822.8V71.8438H820.55C819.987 71.8438 819.551 71.9639 819.24 72.2041C818.936 72.4443 818.783 72.7871 818.783 73.2324ZM835.131 70.2793V71.8965H831.967V80H829.893V71.8965H826.729V70.2793H835.131ZM838.98 70.2793V75.2627C838.98 75.8428 838.934 76.6953 838.84 77.8203L843.718 70.2793H846.24V80H844.254V75.1045C844.254 74.835 844.269 74.3984 844.298 73.7949C844.333 73.1914 844.362 72.752 844.386 72.4766L839.525 80H837.003V70.2793H838.98ZM850.178 80H847.866L850.573 76.0186C849.917 75.8311 849.401 75.4971 849.026 75.0166C848.651 74.5303 848.464 73.9297 848.464 73.2148C848.464 72.2949 848.792 71.5771 849.448 71.0615C850.104 70.54 851.001 70.2793 852.138 70.2793H856.567V80H854.493V76.2559H852.533L850.178 80ZM850.477 73.2324C850.477 73.7305 850.664 74.1055 851.039 74.3574C851.42 74.6035 851.93 74.7266 852.568 74.7266H854.493V71.8438H852.243C851.681 71.8438 851.244 71.9639 850.934 72.2041C850.629 72.4443 850.477 72.7871 850.477 73.2324Z" fill="#A51505"/>
<path d="M919.208 76.1328C919.208 78.7109 917.556 80 914.251 80H910.516V67.1504H918.355V68.9521H912.616V72.3711H914.146C917.521 72.3711 919.208 73.625 919.208 76.1328ZM912.616 78.2334H914.128C915.136 78.2334 915.874 78.0693 916.343 77.7412C916.812 77.4072 917.046 76.8711 917.046 76.1328C917.046 75.4238 916.809 74.9141 916.334 74.6035C915.865 74.2871 915.045 74.1289 913.873 74.1289H912.616V78.2334ZM929.535 80H927.452V71.8965H924.771C924.607 73.9824 924.385 75.6113 924.104 76.7832C923.828 77.9551 923.465 78.8105 923.014 79.3496C922.568 79.8887 921.988 80.1582 921.273 80.1582C920.822 80.1582 920.444 80.0938 920.14 79.9648V78.3477C920.356 78.4297 920.573 78.4707 920.79 78.4707C921.388 78.4707 921.856 77.7998 922.196 76.458C922.542 75.1104 922.812 73.0508 923.005 70.2793H929.535V80ZM941.119 75.1221C941.119 76.71 940.712 77.9492 939.897 78.8398C939.083 79.7305 937.949 80.1758 936.496 80.1758C935.588 80.1758 934.785 79.9707 934.088 79.5605C933.391 79.1504 932.854 78.5615 932.479 77.7939C932.104 77.0264 931.917 76.1357 931.917 75.1221C931.917 73.5459 932.321 72.3154 933.13 71.4307C933.938 70.5459 935.078 70.1035 936.549 70.1035C937.955 70.1035 939.068 70.5576 939.889 71.4658C940.709 72.3682 941.119 73.5869 941.119 75.1221ZM934.044 75.1221C934.044 77.3662 934.873 78.4883 936.531 78.4883C938.172 78.4883 938.992 77.3662 938.992 75.1221C938.992 72.9014 938.166 71.791 936.514 71.791C935.646 71.791 935.017 72.0781 934.624 72.6523C934.237 73.2266 934.044 74.0498 934.044 75.1221ZM949.785 70.2793V71.8965H945.566V80H943.501V70.2793H949.785Z" fill="#1F1E1E"/>
<path d="M1013.67 73.5576C1013.67 75.6494 1013.15 77.2754 1012.1 78.4355C1011.05 79.5957 1009.57 80.1758 1007.66 80.1758C1005.72 80.1758 1004.23 79.6016 1003.18 78.4531C1002.15 77.2988 1001.63 75.6611 1001.63 73.54C1001.63 71.4189 1002.15 69.79 1003.19 68.6533C1004.24 67.5166 1005.74 66.9482 1007.68 66.9482C1009.59 66.9482 1011.06 67.5254 1012.11 68.6797C1013.15 69.834 1013.67 71.46 1013.67 73.5576ZM1003.86 73.5576C1003.86 75.1396 1004.18 76.3408 1004.82 77.1611C1005.46 77.9756 1006.4 78.3828 1007.66 78.3828C1008.91 78.3828 1009.85 77.9785 1010.48 77.1699C1011.12 76.3613 1011.44 75.1572 1011.44 73.5576C1011.44 71.9814 1011.12 70.7861 1010.49 69.9717C1009.86 69.1572 1008.92 68.75 1007.68 68.75C1006.42 68.75 1005.46 69.1572 1004.82 69.9717C1004.18 70.7861 1003.86 71.9814 1003.86 73.5576ZM1022.95 70.2793V74.1816H1027.53V70.2793H1029.6V80H1027.53V75.8076H1022.95V80H1020.89V70.2793H1022.95ZM1038.64 80L1038.23 78.6465H1038.16C1037.69 79.2383 1037.22 79.6426 1036.74 79.8594C1036.27 80.0703 1035.66 80.1758 1034.91 80.1758C1033.96 80.1758 1033.21 79.918 1032.67 79.4023C1032.14 78.8867 1031.87 78.1572 1031.87 77.2139C1031.87 76.2119 1032.24 75.4561 1032.99 74.9463C1033.73 74.4365 1034.87 74.1582 1036.39 74.1113L1038.07 74.0586V73.54C1038.07 72.9189 1037.92 72.4561 1037.63 72.1514C1037.34 71.8408 1036.89 71.6855 1036.28 71.6855C1035.79 71.6855 1035.31 71.7588 1034.85 71.9053C1034.39 72.0518 1033.96 72.2246 1033.53 72.4238L1032.87 70.9473C1033.39 70.6719 1033.97 70.4639 1034.6 70.3232C1035.22 70.1768 1035.82 70.1035 1036.37 70.1035C1037.61 70.1035 1038.54 70.373 1039.17 70.9121C1039.8 71.4512 1040.12 72.2979 1040.12 73.4521V80H1038.64ZM1035.56 78.5938C1036.31 78.5938 1036.91 78.3857 1037.37 77.9697C1037.82 77.5479 1038.05 76.959 1038.05 76.2031V75.3594L1036.8 75.4121C1035.83 75.4473 1035.12 75.6113 1034.68 75.9043C1034.24 76.1914 1034.02 76.6338 1034.02 77.2314C1034.02 77.665 1034.15 78.002 1034.4 78.2422C1034.66 78.4766 1035.05 78.5938 1035.56 78.5938ZM1046.92 80.1758C1045.45 80.1758 1044.33 79.748 1043.56 78.8926C1042.8 78.0312 1042.42 76.7979 1042.42 75.1924C1042.42 73.5576 1042.82 72.3008 1043.61 71.4219C1044.42 70.543 1045.57 70.1035 1047.09 70.1035C1048.11 70.1035 1049.03 70.2939 1049.85 70.6748L1049.23 72.3359C1048.36 71.9961 1047.64 71.8262 1047.07 71.8262C1045.39 71.8262 1044.55 72.9424 1044.55 75.1748C1044.55 76.2646 1044.75 77.085 1045.17 77.6357C1045.59 78.1807 1046.21 78.4531 1047.02 78.4531C1047.94 78.4531 1048.81 78.2246 1049.63 77.7676V79.5693C1049.26 79.7861 1048.86 79.9414 1048.44 80.0352C1048.02 80.1289 1047.52 80.1758 1046.92 80.1758Z" fill="#1F1E1E"/>
<path d="M1112.12 80H1109.65L1104.36 73.4873V80H1102.26V67.1504H1104.36V73.373L1109.56 67.1504H1111.87L1106.68 73.3555L1112.12 80ZM1122.23 75.1221C1122.23 76.71 1121.82 77.9492 1121.01 78.8398C1120.19 79.7305 1119.06 80.1758 1117.61 80.1758C1116.7 80.1758 1115.89 79.9707 1115.2 79.5605C1114.5 79.1504 1113.96 78.5615 1113.59 77.7939C1113.21 77.0264 1113.03 76.1357 1113.03 75.1221C1113.03 73.5459 1113.43 72.3154 1114.24 71.4307C1115.05 70.5459 1116.19 70.1035 1117.66 70.1035C1119.06 70.1035 1120.18 70.5576 1121 71.4658C1121.82 72.3682 1122.23 73.5869 1122.23 75.1221ZM1115.15 75.1221C1115.15 77.3662 1115.98 78.4883 1117.64 78.4883C1119.28 78.4883 1120.1 77.3662 1120.1 75.1221C1120.1 72.9014 1119.28 71.791 1117.62 71.791C1116.76 71.791 1116.13 72.0781 1115.73 72.6523C1115.35 73.2266 1115.15 74.0498 1115.15 75.1221ZM1126.68 70.2793V74.1816H1131.25V70.2793H1133.32V80H1131.25V75.8076H1126.68V80H1124.61V70.2793H1126.68ZM1143.59 70.2793V71.8965H1140.42V80H1138.35V71.8965H1135.18V70.2793H1143.59ZM1151.54 80L1151.13 78.6465H1151.06C1150.59 79.2383 1150.12 79.6426 1149.64 79.8594C1149.17 80.0703 1148.56 80.1758 1147.81 80.1758C1146.86 80.1758 1146.11 79.918 1145.57 79.4023C1145.04 78.8867 1144.77 78.1572 1144.77 77.2139C1144.77 76.2119 1145.14 75.4561 1145.89 74.9463C1146.63 74.4365 1147.77 74.1582 1149.29 74.1113L1150.97 74.0586V73.54C1150.97 72.9189 1150.82 72.4561 1150.53 72.1514C1150.24 71.8408 1149.79 71.6855 1149.18 71.6855C1148.69 71.6855 1148.21 71.7588 1147.75 71.9053C1147.29 72.0518 1146.86 72.2246 1146.43 72.4238L1145.77 70.9473C1146.29 70.6719 1146.87 70.4639 1147.5 70.3232C1148.12 70.1768 1148.72 70.1035 1149.27 70.1035C1150.51 70.1035 1151.44 70.373 1152.07 70.9121C1152.7 71.4512 1153.02 72.2979 1153.02 73.4521V80H1151.54ZM1148.46 78.5938C1149.21 78.5938 1149.81 78.3857 1150.27 77.9697C1150.72 77.5479 1150.95 76.959 1150.95 76.2031V75.3594L1149.7 75.4121C1148.73 75.4473 1148.02 75.6113 1147.58 75.9043C1147.14 76.1914 1146.92 76.6338 1146.92 77.2314C1146.92 77.665 1147.05 78.002 1147.3 78.2422C1147.56 78.4766 1147.95 78.5938 1148.46 78.5938ZM1161.93 70.2793H1164.2L1160.18 74.9639L1164.54 80H1162.17L1157.96 75.0693V80H1155.9V70.2793H1157.96V74.999L1161.93 70.2793ZM1173.45 70.2793V71.8965H1170.29V80H1168.21V71.8965H1165.05V70.2793H1173.45ZM1177.39 74.1641H1179.36C1180.72 74.1641 1181.72 74.3984 1182.37 74.8672C1183.02 75.3359 1183.35 76.0391 1183.35 76.9766C1183.35 77.9785 1183.01 78.7344 1182.33 79.2441C1181.65 79.748 1180.66 80 1179.36 80H1175.32V70.2793H1177.39V74.1641ZM1181.3 77.0293C1181.3 76.543 1181.12 76.2031 1180.75 76.0098C1180.4 75.8164 1179.88 75.7197 1179.21 75.7197H1177.39V78.4707H1178.94C1179.78 78.4707 1180.38 78.3535 1180.75 78.1191C1181.12 77.8848 1181.3 77.5215 1181.3 77.0293ZM1186.95 80H1184.88V70.2793H1186.95V80Z" fill="#1F1E1E"/>
<rect x="293" width="147" height="147" fill="#1F1E1E"/>
<path d="M332.965 72.439H319.633V50.032H319.6V49.999H314.914V73H332.965V72.439ZM336.932 73H355.049V72.439H341.618V61.285H352.112V60.691H341.618V50.56H355.049V49.999H336.932V73ZM363.699 73V50.56C366.57 50.56 375.414 51.649 376.074 64.453V73H380.76V49.999H376.074V60.328C374.655 54.19 370.167 49.999 363.699 49.999H359.013V73H363.699ZM390.389 73V50.56C393.26 50.56 402.104 51.649 402.764 64.453V73H407.45V49.999H402.764V60.328C401.345 54.19 396.857 49.999 390.389 49.999H385.703V73H390.389ZM412.393 73H417.079V49.999H412.393V73Z" fill="white"/>
<rect x="374" y="92" width="121" height="42" fill="#BC3324"/>
<path d="M401.922 124H402.462L405.402 115.45H413.952L417.282 124H421.752L413.652 103.09H409.122L401.922 124ZM409.422 103.75L413.772 114.94H405.582L409.422 103.75ZM425.644 103.09V124H429.904V116.77H434.974L439.864 123.97H444.724L439.564 116.32C442.564 115.54 444.844 113.68 444.844 109.51C444.844 104.29 441.034 102.64 436.594 102.64C431.914 102.64 430.564 106.15 429.904 110.05V103.09H425.644ZM431.074 107.47C431.884 104.53 433.984 103.33 435.844 103.18C440.314 102.76 440.494 105.61 440.494 109.51C440.494 115.84 437.134 116.26 434.254 116.26H429.904C429.904 116.26 429.784 112.12 431.074 107.47ZM455.084 103.6L455.114 124H459.374V103.6H467.984V103.09H446.474V103.6H455.084Z" fill="white"/>
<path d="M1485.75 80L1484.33 76.3672H1479.75L1478.34 80H1477L1481.52 68.5312H1482.63L1487.12 80H1485.75ZM1483.91 75.1719L1482.59 71.6328C1482.41 71.1849 1482.24 70.6354 1482.05 69.9844C1481.94 70.4844 1481.78 71.0339 1481.56 71.6328L1480.22 75.1719H1483.91ZM1494.88 80H1493.57V72.5469H1491C1490.86 74.401 1490.66 75.8724 1490.41 76.9609C1490.16 78.0495 1489.84 78.8464 1489.44 79.3516C1489.04 79.8568 1488.54 80.1094 1487.92 80.1094C1487.64 80.1094 1487.42 80.0781 1487.25 80.0156V79.0547C1487.36 79.0859 1487.49 79.1016 1487.64 79.1016C1488.24 79.1016 1488.72 78.4688 1489.07 77.2031C1489.42 75.9375 1489.69 74.0156 1489.88 71.4375H1494.88V80ZM1501.26 80.1562C1499.99 80.1562 1498.99 79.7708 1498.26 79C1497.53 78.2292 1497.16 77.1589 1497.16 75.7891C1497.16 74.4089 1497.5 73.3125 1498.18 72.5C1498.86 71.6875 1499.78 71.2812 1500.92 71.2812C1501.99 71.2812 1502.84 71.6354 1503.47 72.3438C1504.09 73.0469 1504.41 73.9766 1504.41 75.1328V75.9531H1498.51C1498.53 76.9583 1498.79 77.7214 1499.27 78.2422C1499.75 78.763 1500.43 79.0234 1501.3 79.0234C1502.23 79.0234 1503.14 78.8307 1504.04 78.4453V79.6016C1503.58 79.7995 1503.15 79.9401 1502.73 80.0234C1502.33 80.112 1501.84 80.1562 1501.26 80.1562ZM1500.91 72.3672C1500.22 72.3672 1499.67 72.5911 1499.26 73.0391C1498.85 73.487 1498.61 74.1068 1498.54 74.8984H1503.02C1503.02 74.0807 1502.83 73.4557 1502.47 73.0234C1502.1 72.5859 1501.58 72.3672 1500.91 72.3672ZM1511.62 71.4375H1513.04L1509.34 75.5703L1513.34 80H1511.83L1507.92 75.6641V80H1506.62V71.4375H1507.92V75.6016L1511.62 71.4375ZM1518.36 80.1562C1517.12 80.1562 1516.16 79.776 1515.48 79.0156C1514.8 78.25 1514.46 77.1693 1514.46 75.7734C1514.46 74.3411 1514.8 73.2344 1515.49 72.4531C1516.18 71.6719 1517.17 71.2812 1518.45 71.2812C1518.86 71.2812 1519.27 71.3255 1519.68 71.4141C1520.09 71.5026 1520.41 71.6068 1520.65 71.7266L1520.25 72.8281C1519.96 72.7135 1519.65 72.6198 1519.31 72.5469C1518.97 72.4688 1518.67 72.4297 1518.41 72.4297C1516.67 72.4297 1515.8 73.5391 1515.8 75.7578C1515.8 76.8099 1516.02 77.6172 1516.44 78.1797C1516.86 78.7422 1517.49 79.0234 1518.33 79.0234C1519.04 79.0234 1519.77 78.8698 1520.52 78.5625V79.7109C1519.95 80.0078 1519.23 80.1562 1518.36 80.1562ZM1527.83 80L1527.57 78.7812H1527.51C1527.08 79.3177 1526.65 79.6823 1526.23 79.875C1525.8 80.0625 1525.28 80.1562 1524.64 80.1562C1523.79 80.1562 1523.12 79.9375 1522.64 79.5C1522.16 79.0625 1521.92 78.4401 1521.92 77.6328C1521.92 75.9036 1523.3 74.9974 1526.07 74.9141L1527.52 74.8672V74.3359C1527.52 73.6641 1527.38 73.1693 1527.09 72.8516C1526.8 72.5286 1526.34 72.3672 1525.7 72.3672C1524.99 72.3672 1524.18 72.5859 1523.28 73.0234L1522.88 72.0312C1523.3 71.8021 1523.77 71.6224 1524.27 71.4922C1524.77 71.362 1525.28 71.2969 1525.78 71.2969C1526.8 71.2969 1527.56 71.5234 1528.05 71.9766C1528.54 72.4297 1528.79 73.1562 1528.79 74.1562V80H1527.83ZM1524.9 79.0859C1525.71 79.0859 1526.34 78.8646 1526.8 78.4219C1527.26 77.9792 1527.49 77.3594 1527.49 76.5625V75.7891L1526.2 75.8438C1525.16 75.8802 1524.42 76.0417 1523.96 76.3281C1523.51 76.6094 1523.28 77.0495 1523.28 77.6484C1523.28 78.1172 1523.42 78.474 1523.7 78.7188C1523.99 78.9635 1524.39 79.0859 1524.9 79.0859ZM1532.77 71.4375V75.0234H1537.56V71.4375H1538.86V80H1537.56V76.1406H1532.77V80H1531.47V71.4375H1532.77ZM1549.05 82.9609H1547.79V80H1541.8V82.9609H1540.55V78.8828H1541.23C1541.92 77.9349 1542.47 76.8229 1542.87 75.5469C1543.26 74.2708 1543.47 72.901 1543.48 71.4375H1547.82V78.8828H1549.05V82.9609ZM1546.57 78.8828V72.4609H1544.65C1544.58 73.6172 1544.36 74.7891 1543.98 75.9766C1543.6 77.1589 1543.13 78.1276 1542.57 78.8828H1546.57ZM1554.75 80.1562C1554.19 80.1562 1553.68 80.0547 1553.22 79.8516C1552.76 79.6432 1552.38 79.3255 1552.06 78.8984H1551.97C1552.03 79.3984 1552.06 79.8724 1552.06 80.3203V83.8438H1550.77V71.4375H1551.82L1552 72.6094H1552.06C1552.4 72.1406 1552.78 71.8021 1553.23 71.5938C1553.67 71.3854 1554.18 71.2812 1554.75 71.2812C1555.89 71.2812 1556.76 71.6693 1557.38 72.4453C1557.99 73.2214 1558.3 74.3099 1558.3 75.7109C1558.3 77.1172 1557.99 78.2109 1557.36 78.9922C1556.73 79.7682 1555.86 80.1562 1554.75 80.1562ZM1554.56 72.3828C1553.69 72.3828 1553.05 72.625 1552.66 73.1094C1552.27 73.5938 1552.07 74.3646 1552.06 75.4219V75.7109C1552.06 76.9141 1552.26 77.776 1552.66 78.2969C1553.07 78.8125 1553.71 79.0703 1554.59 79.0703C1555.33 79.0703 1555.91 78.7708 1556.33 78.1719C1556.75 77.5729 1556.96 76.7474 1556.96 75.6953C1556.96 74.6276 1556.75 73.8099 1556.33 73.2422C1555.91 72.6693 1555.32 72.3828 1554.56 72.3828ZM1569.82 69.6016C1568.57 69.6016 1567.57 70.0208 1566.84 70.8594C1566.12 71.6927 1565.76 72.8359 1565.76 74.2891C1565.76 75.7839 1566.11 76.9401 1566.8 77.7578C1567.51 78.5703 1568.51 78.9766 1569.8 78.9766C1570.6 78.9766 1571.51 78.8333 1572.53 78.5469V79.7109C1571.74 80.0078 1570.76 80.1562 1569.6 80.1562C1567.92 80.1562 1566.62 79.6458 1565.7 78.625C1564.79 77.6042 1564.34 76.1536 1564.34 74.2734C1564.34 73.0964 1564.55 72.0651 1564.99 71.1797C1565.43 70.2943 1566.07 69.612 1566.9 69.1328C1567.73 68.6536 1568.71 68.4141 1569.84 68.4141C1571.03 68.4141 1572.08 68.6328 1572.98 69.0703L1572.41 70.2109C1571.55 69.8047 1570.68 69.6016 1569.82 69.6016ZM1574.64 79.1719C1574.64 78.8229 1574.72 78.5599 1574.88 78.3828C1575.04 78.2005 1575.27 78.1094 1575.56 78.1094C1575.86 78.1094 1576.1 78.2005 1576.27 78.3828C1576.44 78.5599 1576.52 78.8229 1576.52 79.1719C1576.52 79.5104 1576.44 79.7708 1576.27 79.9531C1576.09 80.1354 1575.86 80.2266 1575.56 80.2266C1575.3 80.2266 1575.08 80.1458 1574.9 79.9844C1574.73 79.8177 1574.64 79.5469 1574.64 79.1719Z" fill="#1F1E1E"/>
<path d="M1613 79L1618 74L1613 69" stroke="#1F1E1E" stroke-width="2" stroke-linecap="round" stroke-linejoin="round"/>
<path d="M1618 74H1606" stroke="#1F1E1E" stroke-width="2" stroke-linecap="round" stroke-linejoin="round"/>
<path d="M1618 65H1622C1622.53 65 1623.04 65.2107 1623.41 65.5858C1623.79 65.9609 1624 66.4696 1624 67V81C1624 81.5304 1623.79 82.0391 1623.41 82.4142C1623.04 82.7893 1622.53 83 1622 83H1618" stroke="#1F1E1E" stroke-width="2" stroke-linecap="round" stroke-linejoin="round"/>
<defs>
<filter id="filter0_b_488_12960" x="-20" y="-20" width="1960" height="187" filterUnits="userSpaceOnUse" color-interpolation-filters="sRGB">
<feFlood flood-opacity="0" result="BackgroundImageFix"/>
<feGaussianBlur in="BackgroundImageFix" stdDeviation="10"/>
<feComposite in2="SourceAlpha" operator="in" result="effect1_backgroundBlur_488_12960"/>
<feBlend mode="normal" in="SourceGraphic" in2="effect1_backgroundBlur_488_12960" result="shape"/>
</filter>
</defs>
</svg>
